<mxfile host="Electron" agent="Mozilla/5.0 (Windows NT 10.0; Win64; x64) AppleWebKit/537.36 (KHTML, like Gecko) draw.io/26.0.9 Chrome/128.0.6613.186 Electron/32.2.5 Safari/537.36" version="26.0.9">
  <diagram name="Page-1" id="TvFxd1fpZ9S6SGsLET8o">
    <mxGraphModel dx="918" dy="584" grid="1" gridSize="10" guides="1" tooltips="1" connect="1" arrows="1" fold="1" page="1" pageScale="1" pageWidth="850" pageHeight="1100" math="0" shadow="0">
      <root>
        <mxCell id="0" />
        <mxCell id="1" parent="0" />
        <mxCell id="5cnuHnnkD3hBgOaJnGdh-22" value="" style="rounded=0;whiteSpace=wrap;html=1;fillColor=none;" vertex="1" parent="1">
          <mxGeometry x="90" y="270" width="570" height="270" as="geometry" />
        </mxCell>
        <mxCell id="5cnuHnnkD3hBgOaJnGdh-9" style="edgeStyle=orthogonalEdgeStyle;rounded=0;orthogonalLoop=1;jettySize=auto;html=1;exitX=0.5;exitY=1;exitDx=0;exitDy=0;endArrow=none;startFill=0;" edge="1" parent="1" source="5cnuHnnkD3hBgOaJnGdh-5">
          <mxGeometry relative="1" as="geometry">
            <mxPoint x="110" y="570" as="targetPoint" />
          </mxGeometry>
        </mxCell>
        <mxCell id="5cnuHnnkD3hBgOaJnGdh-5" value="Portal" style="rounded=1;whiteSpace=wrap;html=1;" vertex="1" parent="1">
          <mxGeometry x="50" y="60" width="120" height="40" as="geometry" />
        </mxCell>
        <mxCell id="5cnuHnnkD3hBgOaJnGdh-6" value="Customer" style="rounded=1;whiteSpace=wrap;html=1;" vertex="1" parent="1">
          <mxGeometry x="220" y="60" width="120" height="40" as="geometry" />
        </mxCell>
        <mxCell id="5cnuHnnkD3hBgOaJnGdh-7" value="3PL" style="rounded=1;whiteSpace=wrap;html=1;" vertex="1" parent="1">
          <mxGeometry x="400" y="60" width="120" height="40" as="geometry" />
        </mxCell>
        <mxCell id="5cnuHnnkD3hBgOaJnGdh-8" value="Utility" style="rounded=1;whiteSpace=wrap;html=1;" vertex="1" parent="1">
          <mxGeometry x="570" y="60" width="120" height="40" as="geometry" />
        </mxCell>
        <mxCell id="5cnuHnnkD3hBgOaJnGdh-12" style="edgeStyle=orthogonalEdgeStyle;rounded=0;orthogonalLoop=1;jettySize=auto;html=1;exitX=0.5;exitY=1;exitDx=0;exitDy=0;endArrow=none;startFill=0;" edge="1" parent="1">
          <mxGeometry relative="1" as="geometry">
            <mxPoint x="630" y="570" as="targetPoint" />
            <mxPoint x="629.4100000000001" y="100" as="sourcePoint" />
          </mxGeometry>
        </mxCell>
        <mxCell id="5cnuHnnkD3hBgOaJnGdh-13" style="edgeStyle=orthogonalEdgeStyle;rounded=0;orthogonalLoop=1;jettySize=auto;html=1;exitX=0.5;exitY=1;exitDx=0;exitDy=0;endArrow=none;startFill=0;" edge="1" parent="1">
          <mxGeometry relative="1" as="geometry">
            <mxPoint x="460" y="570" as="targetPoint" />
            <mxPoint x="459.41" y="100" as="sourcePoint" />
          </mxGeometry>
        </mxCell>
        <mxCell id="5cnuHnnkD3hBgOaJnGdh-14" style="edgeStyle=orthogonalEdgeStyle;rounded=0;orthogonalLoop=1;jettySize=auto;html=1;exitX=0.5;exitY=1;exitDx=0;exitDy=0;endArrow=none;startFill=0;" edge="1" parent="1">
          <mxGeometry relative="1" as="geometry">
            <mxPoint x="280" y="480" as="targetPoint" />
            <mxPoint x="279.40999999999997" y="100" as="sourcePoint" />
          </mxGeometry>
        </mxCell>
        <mxCell id="5cnuHnnkD3hBgOaJnGdh-15" value="" style="endArrow=classic;html=1;rounded=0;" edge="1" parent="1">
          <mxGeometry width="50" height="50" relative="1" as="geometry">
            <mxPoint x="120" y="180" as="sourcePoint" />
            <mxPoint x="270" y="180" as="targetPoint" />
          </mxGeometry>
        </mxCell>
        <mxCell id="5cnuHnnkD3hBgOaJnGdh-16" value="Order3PLCreatedEvent" style="text;html=1;align=center;verticalAlign=middle;resizable=0;points=[];autosize=1;strokeColor=none;fillColor=none;" vertex="1" parent="1">
          <mxGeometry x="120" y="140" width="150" height="30" as="geometry" />
        </mxCell>
        <mxCell id="5cnuHnnkD3hBgOaJnGdh-17" value="" style="endArrow=classic;html=1;rounded=0;" edge="1" parent="1">
          <mxGeometry width="50" height="50" relative="1" as="geometry">
            <mxPoint x="300" y="240" as="sourcePoint" />
            <mxPoint x="450" y="240" as="targetPoint" />
          </mxGeometry>
        </mxCell>
        <mxCell id="5cnuHnnkD3hBgOaJnGdh-18" value="CustomerDataSyncedEvent" style="text;html=1;align=center;verticalAlign=middle;resizable=0;points=[];autosize=1;strokeColor=none;fillColor=none;" vertex="1" parent="1">
          <mxGeometry x="290" y="210" width="170" height="30" as="geometry" />
        </mxCell>
        <mxCell id="5cnuHnnkD3hBgOaJnGdh-23" value="" style="endArrow=none;html=1;rounded=0;entryX=0.997;entryY=0.827;entryDx=0;entryDy=0;entryPerimeter=0;exitX=0.002;exitY=0.823;exitDx=0;exitDy=0;exitPerimeter=0;" edge="1" parent="1">
          <mxGeometry width="50" height="50" relative="1" as="geometry">
            <mxPoint x="89.99999999999999" y="459.99999999999994" as="sourcePoint" />
            <mxPoint x="657.15" y="461.36000000000007" as="targetPoint" />
          </mxGeometry>
        </mxCell>
        <mxCell id="5cnuHnnkD3hBgOaJnGdh-24" value="alternative ShipmentCreatedEvent.DomainStatus = &quot;CREATED&quot;" style="text;html=1;align=center;verticalAlign=middle;resizable=0;points=[];autosize=1;strokeColor=#005700;fillColor=#008a00;fontColor=#ffffff;" vertex="1" parent="1">
          <mxGeometry x="110" y="270" width="360" height="30" as="geometry" />
        </mxCell>
        <mxCell id="5cnuHnnkD3hBgOaJnGdh-25" value="" style="endArrow=classic;html=1;rounded=0;" edge="1" parent="1">
          <mxGeometry width="50" height="50" relative="1" as="geometry">
            <mxPoint x="460" y="510" as="sourcePoint" />
            <mxPoint x="110" y="510" as="targetPoint" />
          </mxGeometry>
        </mxCell>
        <mxCell id="5cnuHnnkD3hBgOaJnGdh-26" value="" style="endArrow=classic;html=1;rounded=0;" edge="1" parent="1">
          <mxGeometry width="50" height="50" relative="1" as="geometry">
            <mxPoint x="460" y="320" as="sourcePoint" />
            <mxPoint x="630" y="320" as="targetPoint" />
          </mxGeometry>
        </mxCell>
        <mxCell id="5cnuHnnkD3hBgOaJnGdh-27" value="ShipmentCreatedEvent" style="text;html=1;align=center;verticalAlign=middle;resizable=0;points=[];autosize=1;strokeColor=none;fillColor=none;" vertex="1" parent="1">
          <mxGeometry x="205" y="480" width="150" height="30" as="geometry" />
        </mxCell>
        <mxCell id="5cnuHnnkD3hBgOaJnGdh-29" value="ShipmentCreatedEvent" style="text;html=1;align=center;verticalAlign=middle;resizable=0;points=[];autosize=1;strokeColor=none;fillColor=none;" vertex="1" parent="1">
          <mxGeometry x="470" y="290" width="150" height="30" as="geometry" />
        </mxCell>
        <mxCell id="5cnuHnnkD3hBgOaJnGdh-31" value="AWBCreatedEvent" style="text;html=1;align=center;verticalAlign=middle;resizable=0;points=[];autosize=1;strokeColor=none;fillColor=none;" vertex="1" parent="1">
          <mxGeometry x="485" y="350" width="120" height="30" as="geometry" />
        </mxCell>
        <mxCell id="5cnuHnnkD3hBgOaJnGdh-32" value="" style="endArrow=classic;html=1;rounded=0;" edge="1" parent="1">
          <mxGeometry width="50" height="50" relative="1" as="geometry">
            <mxPoint x="630" y="380" as="sourcePoint" />
            <mxPoint x="460" y="380" as="targetPoint" />
          </mxGeometry>
        </mxCell>
        <mxCell id="5cnuHnnkD3hBgOaJnGdh-33" style="edgeStyle=orthogonalEdgeStyle;rounded=0;orthogonalLoop=1;jettySize=auto;html=1;exitX=0.498;exitY=1.095;exitDx=0;exitDy=0;endArrow=none;startFill=0;exitPerimeter=0;" edge="1" parent="1" source="5cnuHnnkD3hBgOaJnGdh-27">
          <mxGeometry relative="1" as="geometry">
            <mxPoint x="280" y="570" as="targetPoint" />
            <mxPoint x="279.44999999999993" y="600" as="sourcePoint" />
          </mxGeometry>
        </mxCell>
        <mxCell id="5cnuHnnkD3hBgOaJnGdh-35" value="OutboundFinishedEvent" style="text;html=1;align=center;verticalAlign=middle;resizable=0;points=[];autosize=1;strokeColor=none;fillColor=none;" vertex="1" parent="1">
          <mxGeometry x="300" y="400" width="150" height="30" as="geometry" />
        </mxCell>
        <mxCell id="5cnuHnnkD3hBgOaJnGdh-36" value="" style="endArrow=classic;html=1;rounded=0;" edge="1" parent="1">
          <mxGeometry width="50" height="50" relative="1" as="geometry">
            <mxPoint x="460" y="430" as="sourcePoint" />
            <mxPoint x="280" y="430" as="targetPoint" />
          </mxGeometry>
        </mxCell>
      </root>
    </mxGraphModel>
  </diagram>
</mxfile>
